<svg xmlns="http://www.w3.org/2000/svg" width="22" height="24" viewBox="0 0 22 24">
    <g fill="#FFF" fill-rule="nonzero">
        <path d="M18.473.48a2.313 2.313 0 0 0-2.192 3.036l-4.013 5.015a2.3 2.3 0 0 0-1.46 0l-1.7-1.7a2.313 2.313 0 0 0-2.192-3.039A2.313 2.313 0 0 0 4.724 6.83l-1.7 1.7a2.313 2.313 0 0 0-3.039 2.192 2.313 2.313 0 0 0 2.31 2.309 2.313 2.313 0 0 0 2.31-2.31c0-.454-.131-.878-.359-1.235l1.435-1.435a2.296 2.296 0 0 0 2.47 0l1.435 1.435c-.228.357-.36.78-.36 1.235a2.313 2.313 0 0 0 2.31 2.31 2.313 2.313 0 0 0 2.31-2.31c0-.453-.131-.875-.357-1.232l3.746-4.751c.358.228.783.361 1.238.361a2.313 2.313 0 0 0 2.31-2.31 2.313 2.313 0 0 0-2.31-2.31zM2.296 11.492a.77.77 0 1 1 .001-1.542.77.77 0 0 1-.001 1.542zm4.62-4.62a.77.77 0 1 1 .002-1.542.77.77 0 0 1-.002 1.542zm4.62 4.62a.77.77 0 1 1 .002-1.542.77.77 0 0 1-.002 1.542zm6.937-7.932a.77.77 0 1 1 .002-1.542.77.77 0 0 1-.002 1.542z"/>
        <path d="M20.568 7.824c-.715.71-8.594 8.499-9.03 8.931l-4.08-4.08a.771.771 0 0 0-1.087.003l-5.58 4.62a.77.77 0 0 0-.225.544v4.774c0 .426.345.77.77.77H21.11a.77.77 0 0 0 .77-.77V8.37c0-.683-.828-1.028-1.313-.546zM6.146 21.846h-4.04v-3.685l4.04-3.08v6.765zm4.62 0h-3.08v-6.765l3.08 3.08v3.685zm4.675 0h-3.135v-3.683l3.135-3.087v6.77zm4.518 0h-2.988v-8.299l2.988-2.94v11.24z"/>
    </g>
</svg>
