<svg xmlns="http://www.w3.org/2000/svg" width="20" height="18" viewBox="0 0 20 18">
    <g fill="#0B62AB" fill-rule="nonzero" stroke="#0B62AB" stroke-width=".5">
        <path d="M18.095 10c-.243 0-.405.165-.405.412v5.353c0 .247-.161.411-.404.411H2.714c-.243 0-.405-.164-.405-.411v-5.353c0-.247-.161-.412-.404-.412-.243 0-.405.165-.405.412v5.353c0 .7.526 1.235 1.214 1.235h14.572c.688 0 1.214-.535 1.214-1.235v-5.353c0-.247-.162-.412-.405-.412z"/>
        <path d="M17.773 4H2.227C1.532 4 1 4.585 1 5.35v2.88c0 .63.41 1.17.94 1.305l6.424 1.575v1.44c0 .27.163.45.409.45h2.454c.246 0 .41-.18.41-.45v-1.44l6.422-1.575C18.591 9.4 19 8.86 19 8.23V5.35C19 4.585 18.468 4 17.773 4zm-6.955 8.1H9.182v-1.8h1.636v1.8zm7.364-3.87c0 .225-.123.405-.327.45l-6.219 1.53v-.36c0-.27-.163-.45-.409-.45H8.773c-.246 0-.41.18-.41.45v.36L2.146 8.68c-.204-.045-.327-.225-.327-.45V5.35c0-.27.164-.45.41-.45h15.545c.245 0 .409.18.409.45v2.88zM12.188 1H7.813C7.069 1 6.5 1.52 6.5 2.2v.4c0 .24.175.4.437.4.263 0 .438-.16.438-.4v-.4c0-.24.175-.4.437-.4h4.376c.262 0 .437.16.437.4v.4c0 .24.175.4.438.4.262 0 .437-.16.437-.4v-.4c0-.68-.569-1.2-1.312-1.2z"/>
    </g>
</svg>
