<svg xmlns="http://www.w3.org/2000/svg" width="22" height="20" viewBox="0 0 22 20">
    <g fill="#FFF" fill-rule="nonzero" stroke="#FFF" stroke-width=".6">
        <path d="M20.524 10c-.286 0-.476.212-.476.53v6.882c0 .317-.19.53-.477.53H2.43c-.286 0-.477-.213-.477-.53v-6.883c0-.317-.19-.529-.476-.529S1 10.212 1 10.53v6.882c0 .9.619 1.588 1.429 1.588H19.57c.81 0 1.429-.688 1.429-1.588v-6.883c0-.317-.19-.529-.476-.529z"/>
        <path d="M20.212 4H1.788C.964 4 .333 4.78.333 5.8v2.34c0 .84.485 1.56 1.115 1.74l7.613 2.1v1.92c0 .36.194.6.484.6h2.91c.29 0 .484-.24.484-.6v-1.92l7.612-2.1c.63-.18 1.116-.9 1.116-1.74V5.8c0-1.02-.63-1.8-1.455-1.8zm-8.242 9.3h-1.94v-2.4h1.94v2.4zm8.727-5.16c0 .3-.146.54-.388.6l-7.37 2.04v-.48c0-.36-.194-.6-.484-.6h-2.91c-.29 0-.484.24-.484.6v.48L1.69 8.74c-.243-.06-.388-.3-.388-.6V5.8c0-.36.194-.6.485-.6h18.424c.291 0 .485.24.485.6v2.34zM13.5 1h-5C7.65 1 7 1.78 7 2.8v.6c0 .36.2.6.5.6s.5-.24.5-.6v-.6c0-.36.2-.6.5-.6h5c.3 0 .5.24.5.6v.6c0 .36.2.6.5.6s.5-.24.5-.6v-.6c0-1.02-.65-1.8-1.5-1.8z"/>
    </g>
</svg>
