<svg xmlns="http://www.w3.org/2000/svg" width="17" height="17" viewBox="0 0 17 17">
    <g fill="#0E95AF" fill-rule="evenodd">
        <path fill-rule="nonzero" stroke="#0E95AF" stroke-width=".7" d="M14.702 1.62a3.182 3.182 0 0 0-1.447-.344h-.408v-.95A.323.323 0 0 0 12.526 0a.323.323 0 0 0-.322.325v.95H4.78v-.95A.323.323 0 0 0 4.458 0a.323.323 0 0 0-.321.325v.95h-.405a3.182 3.182 0 0 0-1.446.345C1.694 1.946 1 2.613 1 4.058v9.537c0 1.344.723 2.782 2.748 2.782h9.504c2.025 0 2.748-1.438 2.748-2.782V4.058c0-1.445-.707-2.125-1.298-2.438zm.655 11.975c0 .638-.206 2.128-2.105 2.128v.003h-9.52c-1.9 0-2.105-1.49-2.105-2.131V6.166h13.73v7.429zm.01-8.076H1.627V4.058c0-.898.321-1.526.954-1.862.358-.18.752-.272 1.15-.27h.41v.84c-.589.293-.483 1.383.32 1.383.804 0 .91-1.09.322-1.383v-.84h7.421v.84c-.588.293-.482 1.383.322 1.383.803 0 .91-1.09.321-1.383v-.84h.408c.398-.002.791.09 1.148.27.642.326.964.977.964 1.862v1.46z"/>
        <path d="M3 8h2v2H3zM7.5 8h2v2h-2zM12 8h2v2h-2zM3 11.5h2v2H3zM7.5 11.5h2v2h-2zM12 11.5h2v2h-2z"/>
    </g>
</svg>
