<svg xmlns="http://www.w3.org/2000/svg" width="26" height="25" viewBox="0 0 26 25">
    <g fill="#0E95AF" fill-rule="nonzero">
        <path stroke="#0E95AF" stroke-width=".2" d="M23.3 17.026v-3.854a4.453 4.453 0 0 0-4.45-4.449h-1.446V4a.796.796 0 0 0-1.593 0v4.724h-3.763v-3.26a4.453 4.453 0 0 0-4.449-4.448 4.453 4.453 0 0 0-4.448 4.448v11.29C1.879 17.426 1 18.747 1 20.282a4.007 4.007 0 0 0 4.003 4.003h15.983a4.007 4.007 0 0 0 4.003-4.003c0-1.343-.67-2.529-1.69-3.255zm-18.557-6.71h5.712v5.945H4.743v-5.945zm8.251 0h5.857a2.86 2.86 0 0 1 2.856 2.856v3.089h-9.66v-5.945h.947zM7.6 2.607a2.86 2.86 0 0 1 2.856 2.856v3.26H4.743v-3.26A2.86 2.86 0 0 1 7.6 2.607zm13.387 20.085H5.003a2.413 2.413 0 0 1-2.41-2.41 2.413 2.413 0 0 1 2.41-2.41h15.983a2.413 2.413 0 0 1 2.41 2.41c0 1.328-1.08 2.41-2.41 2.41z"/>
        <path d="M5.396 18.832a1.45 1.45 0 1 0 .002 2.9 1.45 1.45 0 0 0-.002-2.9zM10.462 18.832a1.45 1.45 0 1 0 .002 2.9 1.45 1.45 0 0 0-.002-2.9zM15.527 18.832a1.45 1.45 0 1 0 .002 2.9 1.45 1.45 0 0 0-.002-2.9zM20.593 18.832a1.45 1.45 0 1 0 .002 2.9 1.45 1.45 0 0 0-.002-2.9z"/>
    </g>
</svg>
