<svg xmlns="http://www.w3.org/2000/svg" width="24" height="24" viewBox="0 0 24 24">
    <g fill="#FFF" fill-rule="nonzero">
        <path stroke="#FFF" stroke-width=".2" d="M22.3 16.026v-3.854a4.453 4.453 0 0 0-4.45-4.449h-1.446V3a.796.796 0 0 0-1.593 0v4.724h-3.763v-3.26A4.453 4.453 0 0 0 6.599.015a4.453 4.453 0 0 0-4.448 4.448v11.29C.879 16.426 0 17.747 0 19.282a4.007 4.007 0 0 0 4.003 4.003h15.983a4.007 4.007 0 0 0 4.003-4.003c0-1.343-.67-2.529-1.69-3.255zM3.742 9.316h5.712v5.945H3.743V9.316zm8.251 0h5.857a2.86 2.86 0 0 1 2.856 2.856v3.089h-9.66V9.316h.947zM6.6 1.607a2.86 2.86 0 0 1 2.856 2.856v3.26H3.743v-3.26A2.86 2.86 0 0 1 6.6 1.607zm13.387 20.085H4.003a2.413 2.413 0 0 1-2.41-2.41 2.413 2.413 0 0 1 2.41-2.41h15.983a2.413 2.413 0 0 1 2.41 2.41c0 1.328-1.08 2.41-2.41 2.41z"/>
        <path d="M4.396 17.832a1.45 1.45 0 1 0 .002 2.9 1.45 1.45 0 0 0-.002-2.9zM9.462 17.832a1.45 1.45 0 1 0 .002 2.9 1.45 1.45 0 0 0-.002-2.9zM14.527 17.832a1.45 1.45 0 1 0 .002 2.9 1.45 1.45 0 0 0-.002-2.9zM19.593 17.832a1.45 1.45 0 1 0 .002 2.9 1.45 1.45 0 0 0-.002-2.9z"/>
    </g>
</svg>
