<svg xmlns="http://www.w3.org/2000/svg" width="25" height="26" viewBox="0 0 25 26">
    <path fill="#054ED5" fill-rule="nonzero" stroke="#054ED5" stroke-width=".6" d="M23.57 11.185a.5.5 0 0 0-.01 0h-.846a10.153 10.153 0 0 0-6.084-8.887c.039-.199-.058-.4-.238-.493C14.879 1.009 12.612 1 12.515 1c-.096 0-2.363 0-3.88.805a.457.457 0 0 0-.234.493 10.153 10.153 0 0 0-6.084 8.887H1.47a.457.457 0 0 0-.457.457v2.789c0 .252.204.457.457.457h2.286c.32 1.673 1.828 8.096 6.45 8.654v.955c0 .253.205.457.457.457h3.712a.457.457 0 0 0 .457-.457v-.955c4.608-.558 6.13-6.98 6.45-8.654h2.286a.457.457 0 0 0 .457-.457v-2.789a.457.457 0 0 0-.457-.457zM8.537 3.235c.156 1.303.224 3.269-.384 4.339a.459.459 0 1 0 .796.457c.914-1.632.571-4.535.407-5.55a9.793 9.793 0 0 1 3.158-.567 9.751 9.751 0 0 1 3.16.549c-.165 1.015-.526 3.918.406 5.55a.459.459 0 1 0 .796-.458c-.645-1.129-.526-3.154-.384-4.338a9.248 9.248 0 0 1 5.312 7.954H3.222a9.248 9.248 0 0 1 5.316-7.936zm5.376 20.805h-2.797v-1.733h2.797v1.733zm.915-1.417v-.773a.457.457 0 0 0-.458-.457H10.66a.457.457 0 0 0-.457.457v.773c-3.72-.567-5.152-5.989-5.513-7.735h15.657c-.365 1.746-1.796 7.168-5.517 7.735zm8.274-8.645H1.928v-1.874h21.175v1.874z"/>
</svg>
