<svg xmlns="http://www.w3.org/2000/svg" width="24" height="24" viewBox="0 0 24 24">
    <path fill="#FFF" fill-rule="nonzero" stroke="#FFF" stroke-width=".7" d="M23.928 18.48a3.006 3.006 0 0 0-2.46-2.455v-2.7c0-1.449-1.42-2.824-2.924-2.824h-6.042v-2.53a2.993 2.993 0 0 0 2.426-3.59 3.004 3.004 0 0 0-3.282-2.337 2.994 2.994 0 0 0-.14 5.927v2.535H5.46c-1.5 0-2.919 1.37-2.919 2.824v2.7a2.993 2.993 0 0 0-2.425 3.59 3.004 3.004 0 0 0 3.282 2.337 2.994 2.994 0 0 0 .14-5.927v-2.7c0-.906.97-1.828 1.922-1.828h6.046v4.523a2.993 2.993 0 0 0-2.425 3.59 3.004 3.004 0 0 0 3.282 2.337 2.994 2.994 0 0 0 .14-5.927v-4.523h6.046c.95 0 1.922.922 1.922 1.828v2.7a2.99 2.99 0 0 0-2.406 3.685 3 3 0 0 0 3.163 2.247 2.996 2.996 0 0 0 2.7-3.482zm-18.891.498a1.997 1.997 0 1 1-3.993.002 1.997 1.997 0 0 1 3.993-.002zm8.97-.005a2 2 0 0 1-1.998 1.998 1.997 1.997 0 1 1 1.997-1.997zM12.003 7.02a1.997 1.997 0 1 1 0-3.994 1.997 1.997 0 0 1 0 3.994zm8.965 13.95a2 2 0 0 1-1.997-1.997 1.997 1.997 0 1 1 1.997 1.997z"/>
</svg>
