<svg xmlns="http://www.w3.org/2000/svg" width="22" height="26" viewBox="0 0 22 26">
    <g fill="#00796B" fill-rule="nonzero" stroke="#00796B">
        <path stroke-width=".5" d="M11.558 16.125h-1.426c-.519 0-.939-.398-.939-.889s.42-.889.939-.889h2.51c.342 0 .622-.265.622-.59 0-.324-.28-.589-.622-.589h-1.177v-.82c0-.324-.28-.59-.623-.59-.342 0-.622.266-.622.59v.82h-.088c-1.204 0-2.184.928-2.184 2.068 0 1.14.98 2.068 2.184 2.068h1.426c.519 0 .939.398.939.889 0 .49-.42.889-.94.889H9.002c-.342 0-.622.265-.622.589 0 .324.28.59.622.59h1.224v.84c0 .323.28.589.622.589.343 0 .623-.266.623-.59v-.84h.119c1.193-.014 2.152-.938 2.152-2.067 0-1.14-.98-2.068-2.183-2.068z"/>
        <path stroke-width=".6" d="M19.998 14.706a17.154 17.154 0 0 0-2.604-4.16 19.37 19.37 0 0 0-3.335-3.16l2.554-4.72a.59.59 0 0 0-.11-.708C15.842 1.314 15.14 1 14.36 1c-.716 0-1.372.27-1.943.509-.45.185-.876.364-1.222.364a.763.763 0 0 1-.285-.05C9.718 1.39 8.802 1.12 7.916 1.12c-1.122 0-2.078.449-3.015 1.407a.6.6 0 0 0-.07.748l2.754 4.147a19.695 19.695 0 0 0-3.29 3.123C3.2 11.857 2.323 13.26 1.692 14.706A14.107 14.107 0 0 0 .5 20.355C.5 22.915 2.593 25 5.162 25h11.366c2.569 0 4.662-2.086 4.662-4.645 0-1.926-.4-3.827-1.192-5.649zM6.113 3.026c.58-.5 1.137-.719 1.803-.719.71 0 1.512.24 2.578.634.22.08.456.12.696.12.586 0 1.147-.23 1.683-.454.515-.215 1.006-.42 1.482-.42.23 0 .556.04.966.33l-2.403 4.45H8.732L6.113 3.027zm10.415 20.776H5.162a3.458 3.458 0 0 1-3.46-3.447c0-3.199 1.176-6.232 3.49-9.017a18.357 18.357 0 0 1 3.4-3.173h4.496c.456.314 1.938 1.412 3.4 3.173 2.318 2.785 3.49 5.813 3.49 9.017.01 1.9-1.542 3.447-3.45 3.447z"/>
    </g>
</svg>
