<svg xmlns="http://www.w3.org/2000/svg" width="25" height="25" viewBox="0 0 25 25">
    <g fill="#FFF" fill-rule="nonzero">
        <path d="M12.48 4.145a3.734 3.734 0 0 0-3.73 3.73 3.734 3.734 0 0 0 3.73 3.73 3.734 3.734 0 0 0 3.73-3.73 3.734 3.734 0 0 0-3.73-3.73zm0 5.618a1.89 1.89 0 0 1-1.888-1.888 1.89 1.89 0 0 1 1.888-1.888 1.89 1.89 0 0 1 1.888 1.888 1.89 1.89 0 0 1-1.888 1.888z"/>
        <path d="M15.856 17.804c.272-.294.55-.605.83-.932 2.498-2.927 3.765-5.556 3.765-7.815v-.453c0-4.48-3.59-8.123-8.004-8.123-4.413 0-8.004 3.644-8.004 8.123v.453c0 2.259 1.267 4.888 3.765 7.815.28.327.558.638.83.932C6.449 18.09 2.5 18.886 2.5 21.07c0 1.165 1.118 2.067 3.323 2.68 1.781.496 4.134.77 6.624.77 2.49 0 4.842-.274 6.624-.77 2.205-.613 3.323-1.515 3.323-2.68 0-2.182-3.934-2.979-6.538-3.266zM6.294 9.057v-.453c0-3.444 2.76-6.245 6.153-6.245S18.6 5.16 18.6 8.604v.453c0 1.764-1.14 4.034-3.295 6.564a32.354 32.354 0 0 1-2.858 2.931 32.3 32.3 0 0 1-2.84-2.91c-2.168-2.539-3.313-4.816-3.313-6.585zM18.18 22.044c-1.577.385-3.613.597-5.734.597s-4.157-.212-5.734-.597c-1.6-.39-2.148-.807-2.313-.974.145-.145.581-.48 1.766-.827 1.218-.356 2.852-.604 4.603-.699.631.592 1.058.946 1.094.976l.584.483.584-.483c.036-.03.462-.384 1.094-.975 1.744.094 3.372.34 4.59.694 1.194.348 1.634.685 1.779.831-.166.167-.713.583-2.313.974z"/>
    </g>
</svg>
