<svg xmlns="http://www.w3.org/2000/svg" width="19" height="19" viewBox="0 0 19 19">
    <g fill="#0B62AB" fill-rule="nonzero" stroke="#0B62AB" stroke-width=".8">
        <path d="M9.5 9c1.103 0 2-.897 2-2s-.897-2-2-2-2 .897-2 2 .897 2 2 2zm0-3.429c.788 0 1.429.641 1.429 1.429A1.43 1.43 0 0 1 9.5 8.429 1.43 1.43 0 0 1 8.071 7c0-.788.641-1.429 1.429-1.429z"/>
        <path d="M14.956 11.483h-1.99l.847-1.246c1.6-2.174 1.368-5.747-.495-7.645A5.243 5.243 0 0 0 9.549 1a5.244 5.244 0 0 0-3.768 1.592c-1.863 1.898-2.095 5.471-.502 7.636l.853 1.256H4.044L1 18h17l-3.044-6.517zM5.73 9.897c-1.445-1.965-1.238-5.191.444-6.905a4.697 4.697 0 0 1 3.375-1.426c1.276 0 2.474.507 3.376 1.426 1.682 1.714 1.889 4.94.437 6.913L9.55 15.519l-2.741-4.036L5.73 9.897zM4.395 12.05h2.122l3.032 4.464 3.032-4.464h2.024l2.515 5.383H1.88l2.515-5.383z"/>
    </g>
</svg>
