<svg xmlns="http://www.w3.org/2000/svg" width="20" height="20" viewBox="0 0 20 20">
    <path fill="#FFF" fill-rule="nonzero" stroke="#FFF" stroke-width=".5" d="M18.726 17.395L14.29 12.94a7.096 7.096 0 0 0 1.766-4.673C16.055 4.26 12.678 1 8.528 1 4.377 1 1 4.26 1 8.267c0 4.008 3.377 7.268 7.528 7.268a7.632 7.632 0 0 0 4.312-1.315l4.471 4.49c.187.187.438.29.708.29a.995.995 0 0 0 .68-.264.926.926 0 0 0 .027-1.34zM8.528 2.895c3.067 0 5.563 2.41 5.563 5.372 0 2.962-2.496 5.372-5.563 5.372-3.068 0-5.564-2.41-5.564-5.372 0-2.961 2.496-5.371 5.564-5.371z"/>
</svg>
