<svg xmlns="http://www.w3.org/2000/svg" width="12" height="14" viewBox="0 0 12 14">
    <g fill="none" fill-rule="evenodd">
        <path d="M-2-1h16v16H-2z"/>
        <path fill="#0E95AF" fill-rule="nonzero" d="M10 9.72c-.507 0-.96.2-1.307.513L3.94 7.467C3.973 7.313 4 7.16 4 7c0-.16-.027-.313-.06-.467l4.7-2.74A1.997 1.997 0 0 0 12 2.333c0-1.106-.893-2-2-2s-2 .894-2 2c0 .16.027.314.06.467l-4.7 2.74A1.997 1.997 0 0 0 0 7a1.997 1.997 0 0 0 3.36 1.46l4.747 2.773a1.88 1.88 0 0 0-.054.434c0 1.073.874 1.946 1.947 1.946a1.949 1.949 0 0 0 1.947-1.946A1.949 1.949 0 0 0 10 9.72z"/>
    </g>
</svg>
