<svg xmlns="http://www.w3.org/2000/svg" width="18" height="19" viewBox="0 0 18 19">
    <g fill="#FFF" fill-rule="nonzero" stroke="#FFF">
        <path stroke-width=".4" d="M14.333 1H3.667C2.197 1 1 2.215 1 3.708v3.25c0 .299.239.542.533.542h3.734v10.29c0 .035.012.066.019.098.006.035.005.07.02.104l.001.003a.52.52 0 0 0 .23.256.514.514 0 0 0 .263.081.514.514 0 0 0 .198-.039l.01-.004h.001l2.458-.998 2.468 1.003a.521.521 0 0 0 .396 0l2.469-1.003 2.468 1.003c.165.067.351.046.497-.054a.549.549 0 0 0 .235-.45V3.709C17 2.215 15.803 1 14.333 1zM5.267 6.416h-3.2V3.708c0-.896.718-1.625 1.6-1.625.882 0 1.6.73 1.6 1.625v2.708zm10.666 10.575l-1.935-.786a.521.521 0 0 0-.395 0l-2.47 1.002-2.468-1.003a.521.521 0 0 0-.396 0l-1.936.786V3.708c0-.612-.208-1.17-.547-1.625h8.547c.882 0 1.6.73 1.6 1.625v13.283z"/>
        <path stroke-width=".3" d="M14.476 4.333H8.19c-.289 0-.523.299-.523.667 0 .368.234.667.523.667h6.286c.29 0 .524-.299.524-.667 0-.368-.235-.667-.524-.667zM14.476 8.5H8.19c-.289 0-.523.299-.523.667 0 .368.234.666.523.666h6.286c.29 0 .524-.298.524-.666 0-.368-.235-.667-.524-.667zM14.267 13H8.4c-.405 0-.733.299-.733.667 0 .368.328.666.733.666h5.867c.404 0 .733-.298.733-.666 0-.368-.329-.667-.733-.667z"/>
    </g>
</svg>
